<svg width="628" height="156" viewBox="0 0 628 156" fill="none" xmlns="http://www.w3.org/2000/svg">
<path d="M8.28 34.2H26.04V70.68H26.76C27.88 67.4 29.84 64.56 32.64 62.16C35.44 59.76 39.32 58.56 44.28 58.56C50.76 58.56 55.64 60.72 58.92 65.04C62.28 69.36 63.96 75.52 63.96 83.52V123H46.2V84.96C46.2 80.88 45.56 77.88 44.28 75.96C43 73.96 40.72 72.96 37.44 72.96C36 72.96 34.6 73.16 33.24 73.56C31.88 73.88 30.64 74.44 29.52 75.24C28.48 76.04 27.64 77.04 27 78.24C26.36 79.36 26.04 80.68 26.04 82.2V123H8.28V34.2ZM116.964 112.44H116.364C115.804 114.04 115.044 115.56 114.084 117C113.204 118.44 112.044 119.72 110.604 120.84C109.164 121.96 107.444 122.84 105.444 123.48C103.524 124.12 101.284 124.44 98.7244 124.44C92.2444 124.44 87.3244 122.32 83.9644 118.08C80.6844 113.76 79.0444 107.6 79.0444 99.6V60H96.8044V98.04C96.8044 101.88 97.4844 104.84 98.8444 106.92C100.204 109 102.524 110.04 105.804 110.04C107.164 110.04 108.524 109.84 109.884 109.44C111.244 109.04 112.444 108.48 113.484 107.76C114.524 106.96 115.364 106 116.004 104.88C116.644 103.76 116.964 102.44 116.964 100.92V60H134.724V123H116.964V112.44ZM151.249 123V60H169.009V70.68H169.729C170.849 67.32 172.769 64.48 175.489 62.16C178.209 59.76 181.929 58.56 186.649 58.56C190.969 58.56 194.649 59.64 197.689 61.8C200.729 63.96 202.929 67.12 204.289 71.28H204.649C205.209 69.52 206.049 67.88 207.169 66.36C208.369 64.76 209.809 63.4 211.489 62.28C213.169 61.16 215.049 60.28 217.129 59.64C219.209 58.92 221.449 58.56 223.849 58.56C229.929 58.56 234.569 60.72 237.769 65.04C241.049 69.36 242.689 75.52 242.689 83.52V123H224.929V84.96C224.929 76.96 222.049 72.96 216.289 72.96C213.649 72.96 211.249 73.72 209.089 75.24C206.929 76.76 205.849 79.08 205.849 82.2V123H188.089V84.96C188.089 76.96 185.209 72.96 179.449 72.96C178.169 72.96 176.889 73.16 175.609 73.56C174.409 73.88 173.289 74.44 172.249 75.24C171.289 76.04 170.489 77.04 169.849 78.24C169.289 79.36 169.009 80.68 169.009 82.2V123H151.249ZM305.035 123C301.835 123 299.155 122 296.995 120C294.915 118 293.595 115.32 293.035 111.96H292.315C291.355 116.04 289.235 119.16 285.955 121.32C282.675 123.4 278.635 124.44 273.835 124.44C267.515 124.44 262.675 122.76 259.315 119.4C255.955 116.04 254.275 111.6 254.275 106.08C254.275 99.44 256.675 94.52 261.475 91.32C266.355 88.04 272.955 86.4 281.275 86.4H291.235V82.44C291.235 79.4 290.435 77 288.835 75.24C287.235 73.4 284.555 72.48 280.795 72.48C277.275 72.48 274.475 73.24 272.395 74.76C270.315 76.28 268.595 78 267.235 79.92L256.675 70.56C259.235 66.8 262.435 63.88 266.275 61.8C270.195 59.64 275.475 58.56 282.115 58.56C291.075 58.56 297.795 60.52 302.275 64.44C306.755 68.36 308.995 74.08 308.995 81.6V109.2H314.875V123H305.035ZM280.435 112.08C283.395 112.08 285.915 111.44 287.995 110.16C290.155 108.88 291.235 106.8 291.235 103.92V96.48H282.595C275.635 96.48 272.155 98.84 272.155 103.56V105.36C272.155 107.68 272.875 109.4 274.315 110.52C275.755 111.56 277.795 112.08 280.435 112.08ZM344.436 123C338.356 123 333.876 121.52 330.996 118.56C328.196 115.6 326.796 111.32 326.796 105.72V34.2H344.556V109.2H352.476V123H344.436ZM388.684 124.44C384.044 124.44 379.884 123.68 376.204 122.16C372.604 120.64 369.524 118.44 366.964 115.56C364.484 112.68 362.564 109.2 361.204 105.12C359.844 101.04 359.164 96.48 359.164 91.44C359.164 86.4 359.844 81.84 361.204 77.76C362.564 73.68 364.484 70.24 366.964 67.44C369.524 64.56 372.604 62.36 376.204 60.84C379.884 59.32 384.044 58.56 388.684 58.56C393.324 58.56 397.444 59.32 401.044 60.84C404.724 62.36 407.804 64.56 410.284 67.44C412.844 70.24 414.804 73.68 416.164 77.76C417.524 81.84 418.204 86.4 418.204 91.44C418.204 96.48 417.524 101.04 416.164 105.12C414.804 109.2 412.844 112.68 410.284 115.56C407.804 118.44 404.724 120.64 401.044 122.16C397.444 123.68 393.324 124.44 388.684 124.44ZM388.684 110.4C392.204 110.4 394.924 109.32 396.844 107.16C398.764 105 399.724 101.92 399.724 97.92V85.08C399.724 81.08 398.764 78 396.844 75.84C394.924 73.68 392.204 72.6 388.684 72.6C385.164 72.6 382.444 73.68 380.524 75.84C378.604 78 377.644 81.08 377.644 85.08V97.92C377.644 101.92 378.604 105 380.524 107.16C382.444 109.32 385.164 110.4 388.684 110.4ZM489.178 127.56C489.178 130.92 488.578 133.88 487.378 136.44C486.258 139 484.378 141.16 481.738 142.92C479.098 144.76 475.578 146.12 471.178 147C466.858 147.96 461.498 148.44 455.098 148.44C449.658 148.44 445.018 148.08 441.178 147.36C437.418 146.72 434.338 145.76 431.938 144.48C429.618 143.28 427.898 141.76 426.778 139.92C425.738 138.16 425.218 136.12 425.218 133.8C425.218 130.28 426.258 127.52 428.338 125.52C430.418 123.52 433.298 122.28 436.978 121.8V120.48C433.938 119.92 431.658 118.64 430.138 116.64C428.618 114.56 427.858 112.16 427.858 109.44C427.858 107.76 428.178 106.32 428.818 105.12C429.538 103.84 430.418 102.76 431.458 101.88C432.578 100.92 433.858 100.16 435.298 99.6C436.738 99.04 438.178 98.6 439.618 98.28V97.8C435.778 96.04 432.938 93.64 431.098 90.6C429.258 87.48 428.338 83.88 428.338 79.8C428.338 73.4 430.538 68.28 434.938 64.44C439.418 60.52 446.218 58.56 455.338 58.56C459.498 58.56 463.058 58.96 466.018 59.76V57.36C466.018 54 466.818 51.6 468.418 50.16C470.098 48.64 472.458 47.88 475.498 47.88H485.458V61.08H471.538V61.8C475.218 63.56 477.938 66 479.698 69.12C481.458 72.16 482.338 75.72 482.338 79.8C482.338 86.12 480.098 91.2 475.618 95.04C471.218 98.8 464.458 100.68 455.338 100.68C451.258 100.68 447.538 100.24 444.178 99.36C442.338 100.56 441.418 102.24 441.418 104.4C441.418 105.92 441.978 107.12 443.098 108C444.298 108.8 446.258 109.2 448.978 109.2H467.218C474.898 109.2 480.458 110.8 483.898 114C487.418 117.2 489.178 121.72 489.178 127.56ZM472.498 129.96C472.498 128.12 471.778 126.72 470.338 125.76C468.898 124.8 466.378 124.32 462.778 124.32H441.178C440.378 125.12 439.778 126 439.378 126.96C439.058 128 438.898 129 438.898 129.96C438.898 132.28 439.898 133.96 441.898 135C443.898 136.12 447.298 136.68 452.098 136.68H459.298C464.098 136.68 467.498 136.12 469.498 135C471.498 133.96 472.498 132.28 472.498 129.96ZM455.338 89.04C458.858 89.04 461.458 88.32 463.138 86.88C464.898 85.36 465.778 83.2 465.778 80.4V78.96C465.778 76.16 464.898 74.04 463.138 72.6C461.458 71.08 458.858 70.32 455.338 70.32C451.818 70.32 449.178 71.08 447.418 72.6C445.738 74.04 444.898 76.16 444.898 78.96V80.4C444.898 83.2 445.738 85.36 447.418 86.88C449.178 88.32 451.818 89.04 455.338 89.04ZM533.8 112.44H533.2C532.64 114.04 531.88 115.56 530.92 117C530.04 118.44 528.88 119.72 527.44 120.84C526 121.96 524.28 122.84 522.28 123.48C520.36 124.12 518.12 124.44 515.56 124.44C509.08 124.44 504.16 122.32 500.8 118.08C497.52 113.76 495.88 107.6 495.88 99.6V60H513.64V98.04C513.64 101.88 514.32 104.84 515.68 106.92C517.04 109 519.36 110.04 522.64 110.04C524 110.04 525.36 109.84 526.72 109.44C528.08 109.04 529.28 108.48 530.32 107.76C531.36 106.96 532.2 106 532.84 104.88C533.48 103.76 533.8 102.44 533.8 100.92V60H551.56V123H533.8V112.44ZM594.365 124.44C589.565 124.44 585.285 123.68 581.525 122.16C577.765 120.56 574.565 118.36 571.925 115.56C569.365 112.68 567.405 109.2 566.045 105.12C564.765 101.04 564.125 96.48 564.125 91.44C564.125 86.48 564.765 82 566.045 78C567.325 73.92 569.205 70.44 571.685 67.56C574.245 64.68 577.365 62.48 581.045 60.96C584.725 59.36 588.925 58.56 593.645 58.56C598.845 58.56 603.285 59.44 606.965 61.2C610.725 62.96 613.765 65.32 616.085 68.28C618.485 71.24 620.205 74.68 621.245 78.6C622.365 82.44 622.925 86.48 622.925 90.72V96H582.485V96.96C582.485 101.12 583.605 104.44 585.845 106.92C588.085 109.32 591.605 110.52 596.405 110.52C600.085 110.52 603.085 109.8 605.405 108.36C607.725 106.84 609.885 105.04 611.885 102.96L620.765 114C617.965 117.28 614.285 119.84 609.725 121.68C605.245 123.52 600.125 124.44 594.365 124.44ZM594.005 71.64C590.405 71.64 587.565 72.84 585.485 75.24C583.485 77.56 582.485 80.68 582.485 84.6V85.56H604.565V84.48C604.565 80.64 603.685 77.56 601.925 75.24C600.245 72.84 597.605 71.64 594.005 71.64Z" fill="#E38C01"/>
</svg>
